<?xml version="1.0" standalone="no"?><svg xmlns="http://www.w3.org/2000/svg" viewBox="0 0 1440 320"><path fill="#7367f0" fill-opacity="1" d="M0,192L30,192C60,192,120,192,180,165.3C240,139,300,85,360,90.7C420,96,480,160,540,202.7C600,245,660,267,720,234.7C780,203,840,117,900,112C960,107,1020,181,1080,208C1140,235,1200,213,1260,218.7C1320,224,1380,256,1410,272L1440,288L1440,320L1410,320C1380,320,1320,320,1260,320C1200,320,1140,320,1080,320C1020,320,960,320,900,320C840,320,780,320,720,320C660,320,600,320,540,320C480,320,420,320,360,320C300,320,240,320,180,320C120,320,60,320,30,320L0,320Z"></path></svg>